#N canvas 251 92 450 300 10;
#X obj 22 103 tgl 15 0 empty empty empty 17 7 0 10 -262144 -1 -1 1
1;
#X obj 22 123 metro 50;
#X obj 22 40 loadbang;
#X obj 22 152 snapshot~;
#X floatatom 22 173 12 0 0 0 - - -;
#X obj 24 201 hsl 195 15 0 1 0 0 empty position empty -2 -8 0 10 -262144
-1 -1 15149 1;
#X obj 119 124 inlet~;
#X connect 0 0 1 0;
#X connect 1 0 3 0;
#X connect 2 0 0 0;
#X connect 3 0 4 0;
#X connect 4 0 5 0;
#X connect 6 0 3 0;
#X coords 0 -1 1 1 202 17 2 20 200;
