#N canvas 779 292 588 296 10;
#X obj 104 56 t f b;
#X floatatom 104 98 5 0 0 0 - - -;
#X obj 77 135 moses;
#X floatatom 47 156 5 0 0 0 - - -;
#X floatatom 111 158 5 0 0 0 - - -;
#X obj 47 176 t b;
#X obj 104 25 inlet;
#X obj 47 252 outlet;
#X obj 215 23 loadbang;
#X obj 215 173 f \$1;
#X obj 47 197 random 100;
#X floatatom 147 218 5 0 0 0 - - -;
#X obj 23 87 random 10000;
#X obj 104 77 * 1500;
#X obj 183 47 expr if(\$2 !=0 \, \$2 \, 1500) \;;
#X floatatom 183 68 5 0 0 0 - - -;
#X connect 0 0 13 0;
#X connect 0 1 12 0;
#X connect 1 0 2 1;
#X connect 2 0 3 0;
#X connect 2 1 4 0;
#X connect 3 0 5 0;
#X connect 5 0 10 0;
#X connect 6 0 0 0;
#X connect 8 0 9 0;
#X connect 8 0 14 0;
#X connect 9 0 10 1;
#X connect 10 0 11 0;
#X connect 10 0 7 0;
#X connect 12 0 2 0;
#X connect 13 0 1 0;
#X connect 14 0 13 1;
#X connect 14 0 15 0;
