#N canvas 339 309 448 350 10;
#X obj 225 123 f;
#X obj 193 153 -;
#X obj 193 174 abs;
#X floatatom 273 195 5 0 0 0 - - -;
#X floatatom 233 216 5 0 0 0 - - -;
#X obj 79 208 spigot;
#X floatatom 226 151 5 0 0 0 - - -;
#X obj 109 19 inlet;
#X obj 195 20 inlet;
#X obj 79 238 s newNum;
#X obj 265 64 r newNum;
#X obj 267 87 t f b;
#X obj 193 195 >= 0.01;
#X obj 280 39 s smoothRange;
#X obj 298 147 r smoothRange;
#X floatatom 381 39 5 0 0 0 - - -;
#X floatatom 298 168 5 0 0 0 - - -;
#X floatatom 59 40 5 0 0 0 - - -;
#X obj 303 128 s outputNum;
#X obj 213 288 r outputNum;
#X obj 213 309 outlet;
#X obj 280 11 inlet;
#X connect 0 0 1 1;
#X connect 0 0 6 0;
#X connect 0 0 18 0;
#X connect 1 0 2 0;
#X connect 2 0 3 0;
#X connect 2 0 12 0;
#X connect 5 0 9 0;
#X connect 7 0 1 0;
#X connect 7 0 5 0;
#X connect 7 0 17 0;
#X connect 8 0 0 0;
#X connect 10 0 11 0;
#X connect 11 0 0 1;
#X connect 11 1 0 0;
#X connect 12 0 4 0;
#X connect 12 0 5 1;
#X connect 14 0 12 1;
#X connect 14 0 16 0;
#X connect 19 0 20 0;
#X connect 21 0 13 0;
#X connect 21 0 15 0;
