#N canvas 534 203 623 447 10;
#X obj 101 203 vsl 15 30 0 0.4 0 0 empty empty empty 0 -9 0 10 -262144
-1 -1 0 1;
#X floatatom 256 80 6 0 0.9 0 - - -;
#X text 128 41 bottom-range-bound;
#X text 315 93 top-range-bound;
#X obj 101 287 outlet~;
#X obj 263 40 inlet;
#X msg 115 140 range \$2 \$1;
#X obj 116 114 pack f 0;
#X obj 101 266 line~;
#X msg 101 241 \$1 10;
#X connect 0 0 9 0;
#X connect 1 0 7 0;
#X connect 5 0 1 0;
#X connect 6 0 0 0;
#X connect 7 0 6 0;
#X connect 8 0 4 0;
#X connect 9 0 8 0;
#X coords 0 -1 1 1 17 36 2 100 200;
